<svg width="390" height="440" viewBox="0 0 390 440" fill="none" xmlns="http://www.w3.org/2000/svg">
<g clip-path="url(#clip0_251_1889)">
<path d="M171.933 15.517L29.9519 98.0275C15.7886 106.258 7.05511 121.385 7.00867 137.766L6.54315 301.983C6.49631 318.504 15.2916 333.788 29.5995 342.049L172.508 424.558C186.816 432.818 204.45 432.793 218.735 424.492L360.716 341.981C374.879 333.751 383.613 318.624 383.659 302.243L384.125 138.026C384.172 121.504 375.376 106.221 361.068 97.9599L218.159 15.4514C203.852 7.19075 186.218 7.21575 171.933 15.517Z" fill="#DCDEE3"/>
<g filter="url(#filter0_f_251_1889)">
<path d="M37.6223 99.7325L175 19.8981C187.391 12.6975 202.687 12.6759 215.098 19.8414L353.621 99.8176C362.496 104.941 362.514 117.744 353.654 122.893L216.276 202.727C203.885 209.928 188.589 209.949 176.178 202.784L37.655 122.808C28.7806 117.684 28.7625 104.881 37.6223 99.7325Z" fill="url(#paint0_linear_251_1889)"/>
</g>
<g filter="url(#filter1_f_251_1889)">
<path fill-rule="evenodd" clip-rule="evenodd" d="M52.6016 91.0287L176.306 25.849C188.002 19.6867 201.987 19.7008 213.67 25.8867L354.967 100.7C354.544 100.386 354.096 100.091 353.623 99.8176L215.1 19.8414C202.689 12.6759 187.393 12.6975 175.002 19.8981L52.6016 91.0287Z" fill="url(#paint1_linear_251_1889)"/>
</g>
<g filter="url(#filter2_f_251_1889)">
<path d="M221.415 212.079L358.74 132.275C367.644 127.101 378.802 133.543 378.773 143.841L378.322 302.67C378.282 316.88 370.706 330.001 358.42 337.141L221.095 416.945C212.192 422.119 201.033 415.676 201.063 405.379L201.513 246.549C201.554 232.34 209.13 219.218 221.415 212.079Z" fill="url(#paint2_linear_251_1889)"/>
</g>
<g opacity="0.5" filter="url(#filter3_f_251_1889)">
<path fill-rule="evenodd" clip-rule="evenodd" d="M202.93 305.907L212.033 247.517C213.935 235.311 220.471 224.308 230.28 216.798L283.79 175.83L221.414 212.078C209.129 219.218 201.553 232.34 201.512 246.549L201.324 312.841C202.018 310.609 202.558 308.294 202.93 305.907Z" fill="white"/>
</g>
<g opacity="0.22" filter="url(#filter4_f_251_1889)">
<path fill-rule="evenodd" clip-rule="evenodd" d="M190.863 265.474L188.017 250.959C185.639 238.836 178.679 228.097 168.585 220.975L86.2074 162.857L170.908 212.08C183.193 219.219 190.769 232.341 190.81 246.55L190.863 265.474Z" fill="white"/>
</g>
<g filter="url(#filter5_f_251_1889)">
<path d="M11.9963 302.445L12.4472 143.553C12.4763 133.306 23.5728 126.921 32.4471 132.044L170.97 212.021C183.382 219.186 191.011 232.444 190.97 246.775L190.519 405.666C190.49 415.914 179.394 422.299 170.519 417.176L31.9961 337.199C19.5849 330.034 11.9556 316.776 11.9963 302.445Z" fill="url(#paint3_linear_251_1889)"/>
</g>
<path d="M338.136 172.34C338.134 172.341 338.131 172.343 338.128 172.345C338.088 172.368 338.048 172.391 338.008 172.415C337.978 172.432 337.95 172.449 337.92 172.466C337.87 172.496 337.821 172.525 337.771 172.555C337.752 172.567 337.732 172.579 337.713 172.59C337.655 172.626 337.596 172.662 337.538 172.698C337.528 172.704 337.517 172.711 337.506 172.717C328.842 178.099 321.935 190.275 321.93 200.337C321.93 200.355 321.93 200.373 321.93 200.391L321.93 200.401C321.93 200.424 321.93 200.446 321.93 200.469C321.958 205.35 323.62 208.845 326.322 210.61C326.332 210.617 326.343 210.624 326.354 210.631C326.385 210.652 326.417 210.672 326.449 210.692C326.488 210.716 326.527 210.741 326.566 210.764C326.571 210.767 326.576 210.77 326.581 210.773C329.538 212.543 333.66 212.325 338.216 209.702L338.226 209.697C338.248 209.684 338.269 209.671 338.292 209.658C347.029 204.583 354.121 192.514 354.422 182.356C354.422 182.347 354.423 182.337 354.423 182.327C354.425 182.257 354.427 182.186 354.428 182.116C354.428 182.092 354.429 182.068 354.429 182.044C354.43 181.988 354.431 181.932 354.431 181.875C354.431 181.843 354.431 181.812 354.432 181.781C354.432 181.736 354.432 181.69 354.432 181.645L354.432 181.636C354.432 181.588 354.431 181.54 354.431 181.493C354.43 181.461 354.43 181.429 354.43 181.398C354.429 181.345 354.428 181.292 354.427 181.239C354.426 181.213 354.426 181.187 354.425 181.161C354.424 181.1 354.422 181.039 354.42 180.979C354.419 180.961 354.419 180.944 354.418 180.927C354.416 180.862 354.413 180.8 354.41 180.736C354.409 180.722 354.409 180.708 354.408 180.694C354.405 180.622 354.4 180.549 354.396 180.477C354.396 180.473 354.396 180.469 354.396 180.464C354.391 180.389 354.386 180.315 354.381 180.241C354.381 180.239 354.381 180.237 354.381 180.236C354.097 176.285 352.658 173.373 350.439 171.712L350.437 171.711C350.357 171.652 350.277 171.594 350.195 171.538C350.188 171.533 350.182 171.529 350.176 171.524C350.142 171.501 350.109 171.479 350.075 171.456C350.064 171.449 350.053 171.442 350.042 171.435C350.012 171.415 349.981 171.396 349.951 171.376C349.936 171.367 349.922 171.357 349.907 171.348C349.88 171.331 349.851 171.313 349.823 171.297C349.805 171.286 349.788 171.275 349.771 171.265C349.746 171.25 349.722 171.236 349.697 171.221C349.675 171.209 349.653 171.196 349.632 171.184C349.61 171.172 349.589 171.16 349.567 171.148C349.542 171.134 349.517 171.12 349.492 171.106C349.474 171.096 349.456 171.087 349.438 171.077C349.409 171.062 349.38 171.046 349.35 171.031L349.305 171.008C349.272 170.991 349.24 170.975 349.207 170.959C349.195 170.953 349.184 170.948 349.173 170.943C349.136 170.925 349.099 170.907 349.062 170.89C349.054 170.886 349.047 170.882 349.039 170.879C348.997 170.86 348.957 170.842 348.915 170.823C348.911 170.822 348.907 170.819 348.902 170.818C348.712 170.734 348.518 170.658 348.319 170.589C348.311 170.586 348.301 170.583 348.292 170.58C348.249 170.565 348.207 170.551 348.165 170.537C348.161 170.536 348.157 170.535 348.153 170.534C345.641 169.724 342.541 170.08 339.165 171.784C339.159 171.787 339.152 171.79 339.146 171.794C339.083 171.825 339.021 171.857 338.958 171.89C338.948 171.895 338.938 171.9 338.928 171.905C338.869 171.936 338.811 171.967 338.751 171.998C338.734 172.008 338.717 172.017 338.7 172.026C338.648 172.054 338.596 172.082 338.544 172.111C338.522 172.123 338.5 172.135 338.478 172.147C338.431 172.173 338.383 172.2 338.336 172.226C338.306 172.243 338.277 172.26 338.247 172.277C338.211 172.297 338.173 172.318 338.136 172.34Z" fill="url(#paint4_linear_251_1889)"/>
<path d="M241.617 339.517C241.614 339.519 241.611 339.521 241.608 339.522C241.569 339.545 241.529 339.569 241.488 339.593C241.459 339.61 241.43 339.626 241.401 339.644C241.351 339.673 241.301 339.703 241.252 339.733C241.232 339.745 241.213 339.757 241.193 339.768C241.135 339.803 241.076 339.84 241.018 339.876C241.008 339.882 240.997 339.888 240.987 339.895C232.323 345.277 225.415 357.453 225.41 367.515C225.411 367.533 225.41 367.551 225.41 367.569L225.41 367.579C225.41 367.602 225.411 367.624 225.411 367.647C225.439 372.528 227.101 376.023 229.802 377.788C229.813 377.795 229.823 377.802 229.834 377.809C229.866 377.83 229.897 377.85 229.929 377.87C229.968 377.894 230.008 377.918 230.047 377.942C230.052 377.945 230.056 377.948 230.062 377.951C233.019 379.721 237.14 379.503 241.697 376.88L241.706 376.874C241.728 376.862 241.75 376.849 241.773 376.836C250.509 371.76 257.602 359.692 257.903 349.534C257.903 349.525 257.903 349.514 257.903 349.505C257.905 349.435 257.907 349.364 257.908 349.294C257.909 349.27 257.909 349.246 257.91 349.222C257.91 349.166 257.911 349.109 257.912 349.053C257.912 349.021 257.912 348.99 257.912 348.958C257.912 348.913 257.913 348.868 257.913 348.823L257.913 348.813C257.913 348.765 257.912 348.718 257.911 348.67C257.911 348.639 257.911 348.607 257.911 348.575C257.91 348.523 257.908 348.47 257.907 348.417C257.907 348.391 257.906 348.365 257.906 348.339C257.904 348.277 257.902 348.217 257.9 348.156C257.9 348.139 257.899 348.121 257.898 348.104C257.896 348.04 257.893 347.977 257.89 347.913C257.89 347.9 257.889 347.886 257.889 347.871C257.885 347.799 257.881 347.727 257.877 347.655C257.876 347.65 257.876 347.647 257.876 347.642C257.872 347.567 257.867 347.493 257.861 347.418C257.861 347.417 257.861 347.415 257.861 347.414C257.577 343.463 256.139 340.55 253.919 338.89L253.918 338.889C253.838 338.829 253.757 338.772 253.675 338.715C253.669 338.711 253.663 338.706 253.656 338.702C253.622 338.679 253.589 338.657 253.555 338.634C253.544 338.627 253.533 338.62 253.523 338.612C253.493 338.593 253.462 338.573 253.431 338.554C253.417 338.545 253.403 338.535 253.388 338.526C253.36 338.509 253.331 338.491 253.303 338.474C253.286 338.464 253.268 338.453 253.251 338.442C253.226 338.428 253.202 338.414 253.177 338.399C253.156 338.387 253.134 338.374 253.113 338.362C253.091 338.349 253.069 338.338 253.048 338.325C253.023 338.312 252.998 338.297 252.973 338.284C252.955 338.274 252.937 338.265 252.918 338.255C252.889 338.24 252.861 338.224 252.831 338.209L252.785 338.186C252.753 338.169 252.72 338.153 252.687 338.137C252.676 338.131 252.665 338.126 252.653 338.12C252.616 338.102 252.579 338.084 252.542 338.068C252.535 338.064 252.527 338.06 252.519 338.057C252.478 338.038 252.438 338.019 252.396 338.001C252.392 337.999 252.388 337.997 252.383 337.995C252.193 337.912 251.998 337.836 251.799 337.767C251.791 337.764 251.781 337.761 251.773 337.758C251.73 337.743 251.688 337.729 251.645 337.715C251.641 337.714 251.637 337.712 251.633 337.711C249.121 336.901 246.022 337.258 242.645 338.962C242.639 338.965 242.633 338.968 242.627 338.971C242.564 339.003 242.501 339.035 242.438 339.067C242.429 339.072 242.418 339.078 242.408 339.083C242.349 339.114 242.291 339.144 242.232 339.176C242.215 339.185 242.198 339.195 242.181 339.204C242.129 339.232 242.077 339.26 242.024 339.289C242.002 339.301 241.98 339.313 241.958 339.325C241.911 339.351 241.863 339.377 241.816 339.404C241.786 339.421 241.758 339.437 241.728 339.454C241.691 339.475 241.654 339.496 241.617 339.517Z" fill="url(#paint5_linear_251_1889)"/>
<path d="M53.1514 172.347C44.1702 167.171 36.8764 171.338 36.8555 181.653C36.835 191.972 44.0809 204.519 53.0469 209.695L53.0626 209.704C62.0351 214.875 69.3288 210.708 69.358 200.398C69.3785 190.083 62.1238 177.527 53.1514 172.347Z" fill="url(#paint6_linear_251_1889)"/>
<path d="M149.667 339.524C140.686 334.349 133.392 338.515 133.371 348.83C133.351 359.15 140.597 371.696 149.563 376.873L149.578 376.882C158.551 382.052 165.844 377.886 165.874 367.576C165.894 357.261 158.639 344.705 149.667 339.524Z" fill="url(#paint7_linear_251_1889)"/>
<path d="M150 228.263C149.998 228.262 149.994 228.26 149.992 228.259C149.952 228.236 149.912 228.213 149.872 228.19C149.842 228.173 149.813 228.157 149.784 228.14C149.734 228.112 149.684 228.085 149.635 228.058C149.616 228.047 149.596 228.036 149.576 228.025C149.518 227.993 149.46 227.962 149.401 227.93C149.391 227.925 149.38 227.919 149.37 227.913C140.704 223.29 133.75 227.463 133.688 237.486C133.688 237.505 133.688 237.522 133.688 237.54C133.688 237.543 133.688 237.547 133.688 237.55L133.688 237.618C133.688 242.515 135.325 247.915 138.007 252.789C138.018 252.808 138.029 252.827 138.039 252.847C138.071 252.904 138.102 252.96 138.134 253.017C138.172 253.086 138.211 253.156 138.251 253.224C138.255 253.233 138.26 253.241 138.265 253.25C141.203 258.423 145.312 262.957 149.868 265.596L149.877 265.601C149.9 265.614 149.922 265.626 149.944 265.639C158.681 270.652 165.818 266.8 166.176 257.022C166.176 257.013 166.176 257.003 166.177 256.994C166.179 256.925 166.181 256.858 166.183 256.789C166.184 256.765 166.184 256.742 166.185 256.719C166.186 256.664 166.187 256.608 166.188 256.553C166.188 256.521 166.188 256.49 166.189 256.459C166.189 256.414 166.19 256.369 166.19 256.325L166.19 256.315C166.19 256.267 166.19 256.219 166.189 256.171C166.189 256.138 166.189 256.107 166.189 256.075C166.188 256.021 166.188 255.968 166.187 255.914C166.187 255.887 166.186 255.86 166.186 255.834C166.185 255.771 166.183 255.708 166.181 255.646C166.181 255.628 166.18 255.61 166.18 255.592C166.178 255.525 166.175 255.459 166.173 255.392C166.172 255.378 166.172 255.363 166.171 255.348C166.168 255.273 166.164 255.195 166.161 255.119C166.16 255.114 166.16 255.111 166.16 255.105C166.156 255.025 166.152 254.946 166.147 254.865C166.147 254.864 166.146 254.861 166.146 254.86C165.886 250.595 164.469 246.034 162.266 241.82L162.264 241.818C162.185 241.666 162.105 241.516 162.023 241.365C162.017 241.353 162.011 241.341 162.005 241.329C161.971 241.268 161.938 241.207 161.904 241.146C161.894 241.126 161.883 241.106 161.872 241.087C161.842 241.032 161.811 240.977 161.781 240.923C161.767 240.897 161.753 240.871 161.738 240.845C161.711 240.796 161.682 240.745 161.654 240.696C161.637 240.665 161.62 240.635 161.602 240.604C161.577 240.56 161.554 240.519 161.529 240.475C161.508 240.438 161.486 240.4 161.465 240.364C161.444 240.327 161.422 240.29 161.4 240.253C161.375 240.21 161.351 240.167 161.326 240.125C161.308 240.094 161.29 240.064 161.272 240.034C161.243 239.985 161.214 239.936 161.185 239.887L161.139 239.811C161.107 239.757 161.075 239.703 161.043 239.65C161.031 239.631 161.019 239.612 161.008 239.593C160.972 239.533 160.935 239.473 160.898 239.413C160.891 239.401 160.883 239.388 160.875 239.376C160.834 239.31 160.794 239.244 160.752 239.178C160.748 239.172 160.744 239.165 160.74 239.158C160.55 238.855 160.357 238.555 160.159 238.257C160.151 238.244 160.141 238.23 160.132 238.217C160.09 238.153 160.048 238.091 160.006 238.028C160.002 238.022 159.998 238.016 159.994 238.01C157.495 234.307 154.403 231.09 151.028 228.895C151.022 228.891 151.015 228.887 151.009 228.883C150.947 228.842 150.884 228.802 150.822 228.762C150.812 228.756 150.801 228.749 150.792 228.743C150.732 228.706 150.674 228.669 150.615 228.632C150.598 228.622 150.581 228.611 150.564 228.601C150.512 228.568 150.46 228.537 150.408 228.505C150.385 228.491 150.363 228.478 150.341 228.465C150.295 228.437 150.247 228.408 150.199 228.38C150.169 228.362 150.141 228.346 150.111 228.328C150.074 228.307 150.037 228.285 150 228.263Z" fill="url(#paint8_linear_251_1889)"/>
<path d="M52.852 283.627C52.8492 283.625 52.846 283.624 52.8432 283.622C52.8035 283.599 52.7633 283.576 52.7231 283.553C52.6936 283.537 52.6649 283.52 52.6354 283.503C52.5855 283.475 52.536 283.448 52.4866 283.421C52.4672 283.41 52.4478 283.399 52.428 283.388C52.3698 283.356 52.3111 283.325 52.2529 283.294C52.2428 283.288 52.2317 283.282 52.2215 283.277C43.5551 278.653 36.6014 282.826 36.5397 292.85C36.5396 292.868 36.5396 292.885 36.5391 292.903C36.5391 292.906 36.5395 292.91 36.5395 292.913L36.5393 292.982C36.5393 297.879 38.1764 303.278 40.8587 308.152C40.8693 308.171 40.8803 308.191 40.8909 308.21C40.9222 308.267 40.9535 308.324 40.9853 308.38C41.0239 308.449 41.063 308.519 41.1022 308.588C41.1068 308.596 41.1114 308.604 41.1164 308.613C44.0542 313.787 48.1631 318.321 52.7198 320.959L52.729 320.964C52.7512 320.977 52.7733 320.99 52.7955 321.002C61.5325 326.015 68.6699 322.163 69.0275 312.385C69.0275 312.376 69.028 312.366 69.0285 312.357C69.0305 312.289 69.033 312.221 69.0346 312.152C69.0351 312.129 69.0356 312.106 69.0362 312.082C69.0373 312.027 69.0383 311.971 69.0394 311.916C69.0395 311.884 69.0396 311.853 69.0402 311.822C69.0407 311.778 69.0413 311.733 69.0415 311.688L69.0415 311.678C69.0416 311.63 69.0413 311.582 69.041 311.534C69.0406 311.502 69.0407 311.47 69.0408 311.439C69.04 311.385 69.0392 311.331 69.0385 311.277C69.0381 311.251 69.0377 311.224 69.0373 311.197C69.0361 311.134 69.0344 311.072 69.0327 311.009C69.0323 310.991 69.0319 310.973 69.0315 310.955C69.0294 310.888 69.0268 310.822 69.0242 310.755C69.0238 310.741 69.0234 310.726 69.0229 310.712C69.0199 310.636 69.016 310.559 69.0125 310.483C69.012 310.477 69.012 310.474 69.0116 310.469C69.0077 310.389 69.0033 310.309 68.9984 310.229C68.9984 310.228 68.998 310.225 68.998 310.224C68.738 305.959 67.3201 301.397 65.1171 297.183L65.1157 297.181C65.0366 297.029 64.9565 296.879 64.875 296.728C64.8686 296.716 64.8626 296.705 64.8562 296.693C64.823 296.631 64.7894 296.57 64.7558 296.509C64.7452 296.489 64.7342 296.469 64.7236 296.45C64.6937 296.395 64.6629 296.34 64.633 296.286C64.6182 296.26 64.6044 296.234 64.5897 296.208C64.5621 296.159 64.5335 296.108 64.5054 296.059C64.4884 296.029 64.4714 295.998 64.4539 295.967C64.429 295.924 64.4051 295.882 64.3802 295.839C64.3591 295.802 64.3374 295.764 64.3163 295.727C64.2951 295.69 64.2734 295.653 64.2518 295.616C64.2269 295.574 64.2021 295.531 64.1772 295.488C64.1593 295.458 64.1413 295.427 64.1234 295.397C64.0944 295.348 64.0658 295.299 64.0364 295.25L63.9908 295.174C63.9585 295.12 63.9263 295.066 63.8941 295.013C63.8826 294.994 63.871 294.976 63.8595 294.957C63.8232 294.897 63.7863 294.836 63.75 294.777C63.7421 294.764 63.7343 294.751 63.7265 294.739C63.686 294.673 63.6454 294.608 63.604 294.541C63.5998 294.535 63.5957 294.528 63.5916 294.521C63.4018 294.218 63.2084 293.918 63.0108 293.62C63.0025 293.608 62.9928 293.594 62.984 293.58C62.9417 293.517 62.8997 293.454 62.8574 293.391C62.8532 293.385 62.8495 293.379 62.8454 293.373C60.3462 289.67 57.2549 286.453 53.8795 284.258C53.8735 284.254 53.867 284.25 53.861 284.246C53.7987 284.206 53.7359 284.165 53.6731 284.125C53.6634 284.119 53.6528 284.112 53.6431 284.106C53.584 284.069 53.5258 284.032 53.4667 283.995C53.4496 283.985 53.4325 283.975 53.4154 283.964C53.3632 283.932 53.3115 283.9 53.2593 283.868C53.2367 283.854 53.215 283.842 53.1928 283.828C53.1462 283.8 53.0981 283.771 53.051 283.743C53.021 283.726 52.9924 283.709 52.9624 283.692C52.9259 283.67 52.8884 283.648 52.852 283.627Z" fill="url(#paint9_linear_251_1889)"/>
<path d="M211.792 101.934L211.776 101.925C202.795 96.7492 188.293 96.7542 179.388 101.94C170.474 107.12 170.529 115.52 179.511 120.705C188.491 125.88 202.993 125.875 211.899 120.69C220.816 115.508 220.757 107.11 211.792 101.934Z" fill="url(#paint10_linear_251_1889)"/>
</g>
<defs>
<filter id="filter0_f_251_1889" x="10.9883" y="-5.51758" width="369.301" height="233.66" filterUnits="userSpaceOnUse" color-interpolation-filters="sRGB">
<feFlood flood-opacity="0" result="BackgroundImageFix"/>
<feBlend mode="normal" in="SourceGraphic" in2="BackgroundImageFix" result="shape"/>
<feGaussianBlur stdDeviation="10" result="effect1_foregroundBlur_251_1889"/>
</filter>
<filter id="filter1_f_251_1889" x="43.6016" y="5.48242" width="320.363" height="104.217" filterUnits="userSpaceOnUse" color-interpolation-filters="sRGB">
<feFlood flood-opacity="0" result="BackgroundImageFix"/>
<feBlend mode="normal" in="SourceGraphic" in2="BackgroundImageFix" result="shape"/>
<feGaussianBlur stdDeviation="4.5" result="effect1_foregroundBlur_251_1889"/>
</filter>
<filter id="filter2_f_251_1889" x="181.062" y="110.449" width="217.711" height="328.32" filterUnits="userSpaceOnUse" color-interpolation-filters="sRGB">
<feFlood flood-opacity="0" result="BackgroundImageFix"/>
<feBlend mode="normal" in="SourceGraphic" in2="BackgroundImageFix" result="shape"/>
<feGaussianBlur stdDeviation="10" result="effect1_foregroundBlur_251_1889"/>
</filter>
<filter id="filter3_f_251_1889" x="192.324" y="166.83" width="100.465" height="155.012" filterUnits="userSpaceOnUse" color-interpolation-filters="sRGB">
<feFlood flood-opacity="0" result="BackgroundImageFix"/>
<feBlend mode="normal" in="SourceGraphic" in2="BackgroundImageFix" result="shape"/>
<feGaussianBlur stdDeviation="4.5" result="effect1_foregroundBlur_251_1889"/>
</filter>
<filter id="filter4_f_251_1889" x="77.207" y="153.857" width="122.656" height="120.617" filterUnits="userSpaceOnUse" color-interpolation-filters="sRGB">
<feFlood flood-opacity="0" result="BackgroundImageFix"/>
<feBlend mode="normal" in="SourceGraphic" in2="BackgroundImageFix" result="shape"/>
<feGaussianBlur stdDeviation="4.5" result="effect1_foregroundBlur_251_1889"/>
</filter>
<filter id="filter5_f_251_1889" x="-8.00391" y="110.238" width="218.973" height="328.744" filterUnits="userSpaceOnUse" color-interpolation-filters="sRGB">
<feFlood flood-opacity="0" result="BackgroundImageFix"/>
<feBlend mode="normal" in="SourceGraphic" in2="BackgroundImageFix" result="shape"/>
<feGaussianBlur stdDeviation="10" result="effect1_foregroundBlur_251_1889"/>
</filter>
<linearGradient id="paint0_linear_251_1889" x1="195.638" y1="208.143" x2="195.638" y2="14.4824" gradientUnits="userSpaceOnUse">
<stop offset="0.572917" stop-color="#F9FAFF"/>
<stop offset="1" stop-color="#DCDEE3" stop-opacity="0"/>
</linearGradient>
<linearGradient id="paint1_linear_251_1889" x1="203.784" y1="14.4824" x2="203.784" y2="100.7" gradientUnits="userSpaceOnUse">
<stop stop-color="white"/>
<stop offset="0.416667" stop-color="white" stop-opacity="0"/>
</linearGradient>
<linearGradient id="paint2_linear_251_1889" x1="209.559" y1="222.424" x2="370.276" y2="326.795" gradientUnits="userSpaceOnUse">
<stop stop-color="#AFB2B9" stop-opacity="0"/>
<stop offset="1" stop-color="#AFB2B9"/>
</linearGradient>
<linearGradient id="paint3_linear_251_1889" x1="147.55" y1="197.941" x2="55.4161" y2="351.279" gradientUnits="userSpaceOnUse">
<stop stop-color="#AFB2B9" stop-opacity="0.74"/>
<stop offset="1" stop-color="#AFB2B9"/>
</linearGradient>
<linearGradient id="paint4_linear_251_1889" x1="338.181" y1="170.119" x2="338.181" y2="211.921" gradientUnits="userSpaceOnUse">
<stop stop-color="#1B1F28"/>
<stop offset="0.729167" stop-color="#444B5C"/>
</linearGradient>
<linearGradient id="paint5_linear_251_1889" x1="241.661" y1="337.297" x2="241.661" y2="379.098" gradientUnits="userSpaceOnUse">
<stop stop-color="#1B1F28"/>
<stop offset="0.729167" stop-color="#444B5C"/>
</linearGradient>
<linearGradient id="paint6_linear_251_1889" x1="53.1068" y1="170.123" x2="53.1068" y2="211.925" gradientUnits="userSpaceOnUse">
<stop stop-color="#1B1F28"/>
<stop offset="0.729167" stop-color="#444B5C"/>
</linearGradient>
<linearGradient id="paint7_linear_251_1889" x1="149.622" y1="337.301" x2="149.622" y2="379.102" gradientUnits="userSpaceOnUse">
<stop stop-color="#1B1F28"/>
<stop offset="0.729167" stop-color="#444B5C"/>
</linearGradient>
<linearGradient id="paint8_linear_251_1889" x1="149.939" y1="226.033" x2="149.939" y2="267.837" gradientUnits="userSpaceOnUse">
<stop stop-color="#1B1F28"/>
<stop offset="0.729167" stop-color="#444B5C"/>
</linearGradient>
<linearGradient id="paint9_linear_251_1889" x1="52.7903" y1="281.396" x2="52.7903" y2="323.2" gradientUnits="userSpaceOnUse">
<stop stop-color="#1B1F28"/>
<stop offset="0.729167" stop-color="#444B5C"/>
</linearGradient>
<linearGradient id="paint10_linear_251_1889" x1="195.645" y1="98.0469" x2="195.645" y2="124.583" gradientUnits="userSpaceOnUse">
<stop stop-color="#1B1F28"/>
<stop offset="0.729167" stop-color="#444B5C"/>
</linearGradient>
<clipPath id="clip0_251_1889">
<rect width="390" height="440" fill="white"/>
</clipPath>
</defs>
</svg>
