<svg width="390" height="440" viewBox="0 0 390 440" fill="none" xmlns="http://www.w3.org/2000/svg">
<path d="M11.4258 296.179L11.8582 143.36L37.0672 99.6971L169.195 22.9136C187.347 22.888 201.833 22.8675 219.986 22.8418L352.975 99.6237L378.308 143.646L377.876 296.464L352.667 340.128L220.539 416.911C202.386 416.937 187.901 416.957 169.748 416.983L36.7588 340.201C27.7047 324.468 20.4798 311.913 11.4258 296.179Z" fill="url(#paint0_radial_251_2697)"/>
<path d="M37.1602 99.6392L174.538 19.8048C188.869 19.7845 200.305 19.7683 214.636 19.748L353.159 99.7243C353.174 109.971 353.177 112.552 353.192 122.799L215.814 202.634C201.483 202.654 190.047 202.67 175.716 202.691L37.1928 122.714L37.1602 99.6392Z" fill="#F8F8F8"/>
<path d="M220.95 211.988L358.276 132.184C367.194 137.332 369.39 138.601 378.308 143.75L377.857 302.579C370.752 314.885 365.06 324.744 357.955 337.05L220.63 416.854C211.712 411.705 209.516 410.437 200.598 405.288L201.049 246.458C208.153 234.152 213.846 224.293 220.95 211.988Z" fill="#D2D4DA"/>
<path d="M11.4062 302.354L11.8572 143.462C20.7388 138.351 22.9755 137.064 31.8571 131.953L170.38 211.929C177.528 224.351 183.232 234.263 190.38 246.684L189.929 405.575C181.048 410.686 178.811 411.973 169.929 417.084L31.4061 337.108C24.2581 324.687 18.5542 314.775 11.4062 302.354Z" fill="#AFB2B9"/>
<path d="M338.292 227.979L338.276 227.988C329.295 233.174 322.049 245.744 322.086 256.05C322.124 266.349 329.417 270.502 338.383 265.326L338.399 265.317C347.371 260.136 354.618 247.575 354.588 237.255C354.55 226.956 347.257 222.803 338.292 227.979Z" fill="url(#paint1_linear_251_2697)"/>
<path d="M241.284 228.255C232.303 233.45 225.056 246.011 225.094 256.317C225.132 266.626 232.425 270.779 241.391 265.602L241.406 265.593C250.379 260.403 257.626 247.842 257.596 237.532C257.558 227.227 250.256 223.075 241.284 228.255Z" fill="url(#paint2_linear_251_2697)"/>
<path d="M338.432 283.619C329.451 288.814 322.205 301.375 322.242 311.68C322.28 321.989 329.574 326.142 338.539 320.966L338.555 320.957C347.528 315.766 354.774 303.205 354.745 292.895C354.707 282.59 347.405 278.438 338.432 283.619Z" fill="url(#paint3_linear_251_2697)"/>
<path d="M338.136 172.34C338.134 172.341 338.131 172.343 338.128 172.345C338.088 172.368 338.048 172.391 338.008 172.415C337.978 172.432 337.95 172.449 337.92 172.466C337.87 172.496 337.821 172.525 337.771 172.555C337.752 172.567 337.732 172.579 337.713 172.59C337.655 172.626 337.596 172.662 337.538 172.698C337.528 172.704 337.517 172.711 337.506 172.717C328.842 178.099 321.935 190.275 321.93 200.337C321.93 200.355 321.93 200.373 321.93 200.391L321.93 200.401C321.93 200.424 321.93 200.446 321.93 200.469C321.958 205.35 323.62 208.845 326.322 210.61C326.332 210.617 326.343 210.624 326.354 210.631C326.385 210.652 326.417 210.672 326.449 210.692C326.488 210.716 326.527 210.741 326.566 210.764C326.571 210.767 326.576 210.77 326.581 210.773C329.538 212.543 333.66 212.325 338.216 209.702L338.226 209.697C338.248 209.684 338.269 209.671 338.292 209.658C347.029 204.583 354.121 192.514 354.422 182.356C354.422 182.347 354.423 182.337 354.423 182.327C354.425 182.257 354.427 182.186 354.428 182.116C354.428 182.092 354.429 182.068 354.429 182.044C354.43 181.988 354.431 181.932 354.431 181.875C354.431 181.843 354.431 181.812 354.432 181.781C354.432 181.736 354.432 181.69 354.432 181.645L354.432 181.636C354.432 181.588 354.431 181.54 354.431 181.493C354.43 181.461 354.43 181.429 354.43 181.398C354.429 181.345 354.428 181.292 354.427 181.239C354.426 181.213 354.426 181.187 354.425 181.161C354.424 181.1 354.422 181.039 354.42 180.979C354.419 180.961 354.419 180.944 354.418 180.927C354.416 180.862 354.413 180.8 354.41 180.736C354.409 180.722 354.409 180.708 354.408 180.694C354.405 180.622 354.4 180.549 354.396 180.477C354.396 180.473 354.396 180.469 354.396 180.464C354.391 180.389 354.386 180.315 354.381 180.241C354.381 180.239 354.381 180.237 354.381 180.236C354.097 176.285 352.658 173.373 350.439 171.712L350.437 171.711C350.357 171.652 350.277 171.594 350.195 171.538C350.188 171.533 350.182 171.529 350.176 171.524C350.142 171.501 350.109 171.479 350.075 171.456C350.064 171.449 350.053 171.442 350.042 171.435C350.012 171.415 349.981 171.396 349.951 171.376C349.936 171.367 349.922 171.357 349.907 171.348C349.88 171.331 349.851 171.313 349.823 171.297C349.805 171.286 349.788 171.275 349.771 171.265C349.746 171.25 349.722 171.236 349.697 171.221C349.675 171.209 349.653 171.196 349.632 171.184C349.61 171.172 349.589 171.16 349.567 171.148C349.542 171.134 349.517 171.12 349.492 171.106C349.474 171.096 349.456 171.087 349.438 171.077C349.409 171.062 349.38 171.046 349.35 171.031L349.305 171.008C349.272 170.991 349.24 170.975 349.207 170.959C349.195 170.953 349.184 170.948 349.173 170.943C349.136 170.925 349.099 170.907 349.062 170.89C349.054 170.886 349.047 170.882 349.039 170.879C348.997 170.86 348.957 170.842 348.915 170.823C348.911 170.822 348.907 170.819 348.902 170.818C348.712 170.734 348.518 170.658 348.319 170.589C348.311 170.586 348.301 170.583 348.292 170.58C348.249 170.565 348.207 170.551 348.165 170.537C348.161 170.536 348.157 170.535 348.153 170.534C345.641 169.724 342.541 170.08 339.165 171.784C339.159 171.787 339.152 171.79 339.146 171.794C339.083 171.825 339.021 171.857 338.958 171.89C338.948 171.895 338.938 171.9 338.928 171.905C338.869 171.936 338.811 171.967 338.751 171.998C338.734 172.008 338.717 172.017 338.7 172.026C338.648 172.054 338.596 172.082 338.544 172.111C338.522 172.123 338.5 172.135 338.478 172.147C338.431 172.173 338.383 172.2 338.336 172.226C338.306 172.243 338.277 172.26 338.247 172.277C338.211 172.297 338.173 172.318 338.136 172.34Z" fill="url(#paint4_linear_251_2697)"/>
<path d="M241.617 339.517C241.614 339.519 241.611 339.521 241.608 339.522C241.569 339.545 241.529 339.569 241.488 339.593C241.459 339.61 241.43 339.626 241.401 339.644C241.351 339.673 241.301 339.703 241.252 339.733C241.232 339.745 241.213 339.757 241.193 339.768C241.135 339.803 241.076 339.84 241.018 339.876C241.008 339.882 240.997 339.888 240.987 339.895C232.323 345.277 225.415 357.453 225.41 367.515C225.411 367.533 225.41 367.551 225.41 367.569L225.41 367.579C225.41 367.602 225.411 367.624 225.411 367.647C225.439 372.528 227.101 376.023 229.802 377.788C229.813 377.795 229.823 377.802 229.834 377.809C229.866 377.83 229.897 377.85 229.929 377.87C229.968 377.894 230.008 377.918 230.047 377.942C230.052 377.945 230.056 377.948 230.062 377.951C233.019 379.721 237.14 379.503 241.697 376.88L241.706 376.874C241.728 376.862 241.75 376.849 241.773 376.836C250.509 371.76 257.602 359.692 257.903 349.534C257.903 349.525 257.903 349.514 257.903 349.505C257.905 349.435 257.907 349.364 257.908 349.294C257.909 349.27 257.909 349.246 257.91 349.222C257.91 349.166 257.911 349.109 257.912 349.053C257.912 349.021 257.912 348.99 257.912 348.958C257.912 348.913 257.913 348.868 257.913 348.823L257.913 348.813C257.913 348.765 257.912 348.718 257.911 348.67C257.911 348.639 257.911 348.607 257.911 348.575C257.91 348.523 257.908 348.47 257.907 348.417C257.907 348.391 257.906 348.365 257.906 348.339C257.904 348.277 257.902 348.217 257.9 348.156C257.9 348.139 257.899 348.121 257.898 348.104C257.896 348.04 257.893 347.977 257.89 347.913C257.89 347.9 257.889 347.886 257.889 347.871C257.885 347.799 257.881 347.727 257.877 347.655C257.876 347.65 257.876 347.647 257.876 347.642C257.872 347.567 257.867 347.493 257.861 347.418C257.861 347.417 257.861 347.415 257.861 347.414C257.577 343.463 256.139 340.55 253.919 338.89L253.918 338.889C253.838 338.829 253.757 338.772 253.675 338.715C253.669 338.711 253.663 338.706 253.656 338.702C253.622 338.679 253.589 338.657 253.555 338.634C253.544 338.627 253.533 338.62 253.523 338.612C253.493 338.593 253.462 338.573 253.431 338.554C253.417 338.545 253.403 338.535 253.388 338.526C253.36 338.509 253.331 338.491 253.303 338.474C253.286 338.464 253.268 338.453 253.251 338.442C253.226 338.428 253.202 338.414 253.177 338.399C253.156 338.387 253.134 338.374 253.113 338.362C253.091 338.349 253.069 338.338 253.048 338.325C253.023 338.312 252.998 338.297 252.973 338.284C252.955 338.274 252.937 338.265 252.918 338.255C252.889 338.24 252.861 338.224 252.831 338.209L252.785 338.186C252.753 338.169 252.72 338.153 252.687 338.137C252.676 338.131 252.665 338.126 252.653 338.12C252.616 338.102 252.579 338.084 252.542 338.068C252.535 338.064 252.527 338.06 252.519 338.057C252.478 338.038 252.438 338.019 252.396 338.001C252.392 337.999 252.388 337.997 252.383 337.995C252.193 337.912 251.998 337.836 251.799 337.767C251.791 337.764 251.781 337.761 251.773 337.758C251.73 337.743 251.688 337.729 251.645 337.715C251.641 337.714 251.637 337.712 251.633 337.711C249.121 336.901 246.022 337.258 242.645 338.962C242.639 338.965 242.633 338.968 242.627 338.971C242.564 339.003 242.501 339.035 242.438 339.067C242.429 339.072 242.418 339.078 242.408 339.083C242.349 339.114 242.291 339.144 242.232 339.176C242.215 339.185 242.198 339.195 242.181 339.204C242.129 339.232 242.077 339.26 242.024 339.289C242.002 339.301 241.98 339.313 241.958 339.325C241.911 339.351 241.863 339.377 241.816 339.404C241.786 339.421 241.758 339.437 241.728 339.454C241.691 339.475 241.654 339.496 241.617 339.517Z" fill="url(#paint5_linear_251_2697)"/>
<path d="M241.456 283.888L241.44 283.897C232.459 289.082 225.213 301.652 225.25 311.958C225.288 322.257 232.581 326.41 241.547 321.234L241.563 321.225C250.535 316.044 257.782 303.483 257.753 293.163C257.715 282.864 250.421 278.711 241.456 283.888Z" fill="url(#paint6_linear_251_2697)"/>
<path d="M53.1475 172.347C44.1663 167.171 36.8725 171.338 36.8516 181.653C36.8311 191.972 44.077 204.519 53.043 209.695L53.0587 209.704C62.0312 214.875 69.3249 210.708 69.3541 200.398C69.3746 190.083 62.1199 177.527 53.1475 172.347Z" fill="url(#paint7_linear_251_2697)"/>
<path d="M149.667 339.524C140.686 334.349 133.392 338.515 133.371 348.83C133.351 359.15 140.597 371.696 149.563 376.873L149.578 376.882C158.551 382.052 165.844 377.886 165.874 367.576C165.894 357.261 158.639 344.705 149.667 339.524Z" fill="url(#paint8_linear_251_2697)"/>
<path d="M101.42 255.947L101.404 255.938C92.4315 250.757 85.1377 254.933 85.1173 265.248C85.0881 275.553 92.334 288.1 101.308 293.281L101.324 293.29C110.296 298.47 117.59 294.304 117.611 283.979C117.64 273.675 110.386 261.123 101.42 255.947Z" fill="url(#paint9_linear_251_2697)"/>
<path d="M211.477 46.0317L211.461 46.0226C202.48 40.8373 187.978 40.8423 179.064 46.0323C170.164 51.2149 170.214 59.6074 179.18 64.7839L179.195 64.793C188.168 69.9732 202.678 69.9633 211.592 64.783C220.493 59.6003 220.442 51.2079 211.477 46.0317Z" fill="url(#paint10_linear_251_2697)"/>
<path d="M212.105 157.846L212.09 157.837C203.109 152.652 188.607 152.657 179.693 157.847C170.793 163.029 170.843 171.422 179.809 176.598L179.824 176.607C188.797 181.788 203.307 181.778 212.221 176.597C221.121 171.415 221.071 163.022 212.105 157.846Z" fill="url(#paint11_linear_251_2697)"/>
<path d="M308.312 101.939C308.274 101.918 308.237 101.897 308.2 101.875C308.164 101.855 308.129 101.834 308.093 101.814C308.049 101.79 308.005 101.765 307.961 101.74C307.934 101.726 307.908 101.711 307.881 101.697C307.829 101.667 307.775 101.638 307.721 101.609C307.704 101.6 307.686 101.59 307.669 101.581C307.601 101.545 307.534 101.509 307.466 101.474C307.462 101.472 307.459 101.47 307.454 101.468C298.529 96.8027 284.824 96.9089 276.165 101.787C276.153 101.794 276.14 101.8 276.128 101.807C276.083 101.833 276.038 101.859 275.994 101.885C275.97 101.898 275.947 101.911 275.923 101.924C275.919 101.927 275.915 101.93 275.911 101.932C275.882 101.949 275.852 101.966 275.823 101.984C275.782 102.008 275.74 102.032 275.7 102.056C275.679 102.068 275.659 102.081 275.639 102.093C275.589 102.123 275.541 102.152 275.491 102.182C275.483 102.187 275.475 102.192 275.466 102.198C267.005 107.391 267.187 115.595 276.012 120.69C276.051 120.712 276.09 120.734 276.129 120.757C276.163 120.776 276.197 120.796 276.231 120.815C276.272 120.838 276.315 120.862 276.357 120.885C276.386 120.901 276.414 120.917 276.443 120.933C276.492 120.96 276.542 120.986 276.591 121.013C276.613 121.025 276.635 121.037 276.657 121.048C276.71 121.077 276.763 121.105 276.816 121.133C276.835 121.143 276.854 121.153 276.872 121.163C276.935 121.196 276.997 121.228 277.061 121.26C277.07 121.265 277.08 121.27 277.09 121.275C277.149 121.305 277.207 121.334 277.267 121.364C277.282 121.372 277.297 121.379 277.312 121.387C277.366 121.413 277.419 121.44 277.473 121.466C277.494 121.476 277.516 121.487 277.537 121.497C277.59 121.523 277.643 121.548 277.697 121.574C277.718 121.584 277.739 121.594 277.76 121.604C277.813 121.629 277.866 121.653 277.919 121.678C277.942 121.688 277.965 121.699 277.988 121.71C278.04 121.733 278.092 121.757 278.145 121.781C278.168 121.792 278.192 121.802 278.214 121.813C278.265 121.835 278.316 121.858 278.367 121.88C278.393 121.892 278.42 121.904 278.446 121.915C278.489 121.934 278.531 121.952 278.574 121.97C278.609 121.985 278.644 122 278.679 122.015C278.713 122.03 278.747 122.044 278.78 122.058C278.826 122.077 278.872 122.096 278.918 122.115C278.935 122.123 278.951 122.129 278.968 122.136C279.031 122.162 279.093 122.187 279.155 122.212C279.163 122.215 279.172 122.219 279.179 122.222C288.051 125.785 300.274 125.314 308.215 120.811L308.226 120.805C308.284 120.771 308.343 120.738 308.4 120.705L308.413 120.697C308.475 120.661 308.535 120.626 308.596 120.589L308.609 120.582C314.645 116.983 316.448 111.889 314.025 107.39C314.025 107.39 314.024 107.389 314.024 107.389C314 107.344 313.976 107.3 313.95 107.255C313.947 107.248 313.944 107.242 313.94 107.235C313.918 107.197 313.896 107.159 313.874 107.121C313.867 107.108 313.86 107.095 313.852 107.082C313.834 107.051 313.816 107.022 313.798 106.992L313.76 106.928C313.75 106.911 313.739 106.894 313.728 106.877C313.707 106.843 313.686 106.809 313.665 106.775L313.664 106.773C312.61 105.109 310.963 103.543 308.724 102.183C308.72 102.181 308.714 102.177 308.709 102.174C308.579 102.095 308.446 102.017 308.312 101.939Z" fill="url(#paint12_linear_251_2697)"/>
<path d="M115.273 101.941C115.235 101.92 115.198 101.898 115.161 101.877C115.125 101.857 115.09 101.836 115.054 101.816C115.01 101.792 114.966 101.767 114.922 101.742C114.895 101.728 114.869 101.713 114.842 101.699C114.789 101.669 114.735 101.64 114.682 101.611C114.665 101.602 114.647 101.592 114.63 101.583C114.562 101.547 114.495 101.511 114.427 101.476C114.423 101.474 114.42 101.472 114.415 101.469C105.49 96.8047 91.7845 96.9109 83.1258 101.789C83.1138 101.796 83.1012 101.802 83.0893 101.809C83.0438 101.835 82.9993 101.861 82.9548 101.886C82.931 101.9 82.908 101.913 82.8842 101.926C82.8798 101.929 82.8764 101.931 82.872 101.934C82.8426 101.951 82.8128 101.968 82.7839 101.986C82.7426 102.01 82.7011 102.034 82.6607 102.058C82.6401 102.07 82.6201 102.083 82.5999 102.095C82.5504 102.125 82.5015 102.154 82.452 102.184C82.4439 102.189 82.4359 102.194 82.4272 102.199C73.9657 107.393 74.1481 115.597 82.9732 120.692C83.012 120.714 83.0513 120.736 83.0903 120.759C83.1242 120.778 83.1579 120.797 83.1921 120.817C83.2337 120.84 83.2762 120.864 83.3177 120.887C83.3468 120.903 83.3748 120.919 83.4039 120.934C83.453 120.961 83.5027 120.988 83.5523 121.015C83.5742 121.027 83.5955 121.039 83.6176 121.05C83.6708 121.079 83.7238 121.107 83.7769 121.135C83.7959 121.145 83.815 121.155 83.8333 121.165C83.8958 121.197 83.9584 121.23 84.0217 121.262C84.0309 121.267 84.041 121.272 84.0505 121.277C84.1098 121.307 84.1682 121.336 84.2276 121.366C84.2428 121.374 84.258 121.381 84.273 121.389C84.3266 121.415 84.3801 121.441 84.4341 121.468C84.4554 121.478 84.4766 121.489 84.4976 121.499C84.5509 121.525 84.604 121.55 84.6578 121.575C84.679 121.586 84.6998 121.595 84.721 121.606C84.7739 121.631 84.8272 121.655 84.88 121.68C84.9031 121.69 84.9255 121.701 84.9486 121.711C85.0005 121.735 85.0533 121.759 85.1057 121.783C85.1288 121.793 85.1526 121.804 85.1754 121.815C85.2264 121.837 85.2772 121.86 85.3282 121.882C85.3542 121.894 85.3808 121.905 85.4071 121.917C85.4498 121.935 85.4922 121.954 85.5349 121.972C85.57 121.987 85.6053 122.002 85.6404 122.017C85.6743 122.032 85.7077 122.046 85.7414 122.06C85.7869 122.079 85.8332 122.098 85.8789 122.117C85.896 122.125 85.9124 122.131 85.9292 122.138C85.9917 122.164 86.0538 122.189 86.1163 122.214C86.1235 122.217 86.1327 122.221 86.1399 122.224C95.0118 125.787 107.235 125.316 115.176 120.813L115.187 120.806C115.245 120.773 115.304 120.74 115.361 120.706L115.374 120.699C115.435 120.663 115.496 120.628 115.557 120.591L115.57 120.584C121.606 116.985 123.409 111.891 120.986 107.392C120.986 107.392 120.985 107.391 120.985 107.391C120.961 107.346 120.937 107.302 120.911 107.257C120.908 107.25 120.904 107.244 120.9 107.237C120.879 107.199 120.857 107.161 120.835 107.123C120.828 107.11 120.821 107.097 120.813 107.084C120.795 107.053 120.777 107.024 120.759 106.994C120.746 106.972 120.734 106.951 120.721 106.93C120.711 106.913 120.7 106.896 120.689 106.879C120.668 106.845 120.647 106.811 120.626 106.777L120.624 106.775C119.571 105.111 117.924 103.545 115.685 102.185C115.681 102.183 115.675 102.179 115.67 102.176C115.54 102.097 115.407 102.019 115.273 101.941Z" fill="url(#paint13_linear_251_2697)"/>
<path d="M211.792 101.934L211.776 101.925C202.795 96.7492 188.293 96.7542 179.388 101.94C170.474 107.12 170.529 115.52 179.511 120.705C188.491 125.88 202.993 125.875 211.899 120.69C220.816 115.508 220.757 107.11 211.792 101.934Z" fill="url(#paint14_linear_251_2697)"/>
<defs>
<radialGradient id="paint0_radial_251_2697" cx="0" cy="0" r="1" gradientUnits="userSpaceOnUse" gradientTransform="translate(194.867 167.5) rotate(90) scale(249.483 232.229)">
<stop stop-color="#E2E3E7"/>
<stop offset="0.0001" stop-color="#F5F5F5"/>
<stop offset="1" stop-color="#DDDDDE"/>
</radialGradient>
<linearGradient id="paint1_linear_251_2697" x1="338.337" y1="225.752" x2="338.337" y2="267.553" gradientUnits="userSpaceOnUse">
<stop stop-color="#1B1F28"/>
<stop offset="0.729167" stop-color="#444B5C"/>
</linearGradient>
<linearGradient id="paint2_linear_251_2697" x1="241.345" y1="226.025" x2="241.345" y2="267.83" gradientUnits="userSpaceOnUse">
<stop stop-color="#1B1F28"/>
<stop offset="0.729167" stop-color="#444B5C"/>
</linearGradient>
<linearGradient id="paint3_linear_251_2697" x1="338.493" y1="281.389" x2="338.493" y2="323.193" gradientUnits="userSpaceOnUse">
<stop stop-color="#1B1F28"/>
<stop offset="0.729167" stop-color="#444B5C"/>
</linearGradient>
<linearGradient id="paint4_linear_251_2697" x1="338.181" y1="170.119" x2="338.181" y2="211.921" gradientUnits="userSpaceOnUse">
<stop stop-color="#1B1F28"/>
<stop offset="0.729167" stop-color="#444B5C"/>
</linearGradient>
<linearGradient id="paint5_linear_251_2697" x1="241.661" y1="337.297" x2="241.661" y2="379.098" gradientUnits="userSpaceOnUse">
<stop stop-color="#1B1F28"/>
<stop offset="0.729167" stop-color="#444B5C"/>
</linearGradient>
<linearGradient id="paint6_linear_251_2697" x1="241.501" y1="281.66" x2="241.501" y2="323.461" gradientUnits="userSpaceOnUse">
<stop stop-color="#1B1F28"/>
<stop offset="0.729167" stop-color="#444B5C"/>
</linearGradient>
<linearGradient id="paint7_linear_251_2697" x1="53.1029" y1="170.123" x2="53.1029" y2="211.925" gradientUnits="userSpaceOnUse">
<stop stop-color="#1B1F28"/>
<stop offset="0.729167" stop-color="#444B5C"/>
</linearGradient>
<linearGradient id="paint8_linear_251_2697" x1="149.622" y1="337.301" x2="149.622" y2="379.102" gradientUnits="userSpaceOnUse">
<stop stop-color="#1B1F28"/>
<stop offset="0.729167" stop-color="#444B5C"/>
</linearGradient>
<linearGradient id="paint9_linear_251_2697" x1="101.364" y1="253.713" x2="101.364" y2="295.517" gradientUnits="userSpaceOnUse">
<stop stop-color="#1B1F28"/>
<stop offset="0.729167" stop-color="#444B5C"/>
</linearGradient>
<linearGradient id="paint10_linear_251_2697" x1="195.328" y1="42.1367" x2="195.328" y2="68.6732" gradientUnits="userSpaceOnUse">
<stop stop-color="#1B1F28"/>
<stop offset="0.729167" stop-color="#444B5C"/>
</linearGradient>
<linearGradient id="paint11_linear_251_2697" x1="195.957" y1="153.951" x2="195.957" y2="180.488" gradientUnits="userSpaceOnUse">
<stop stop-color="#1B1F28"/>
<stop offset="0.729167" stop-color="#444B5C"/>
</linearGradient>
<linearGradient id="paint12_linear_251_2697" x1="292.16" y1="98.0469" x2="292.16" y2="124.582" gradientUnits="userSpaceOnUse">
<stop stop-color="#1B1F28"/>
<stop offset="0.729167" stop-color="#444B5C"/>
</linearGradient>
<linearGradient id="paint13_linear_251_2697" x1="99.1213" y1="98.0488" x2="99.1213" y2="124.584" gradientUnits="userSpaceOnUse">
<stop stop-color="#1B1F28"/>
<stop offset="0.729167" stop-color="#444B5C"/>
</linearGradient>
<linearGradient id="paint14_linear_251_2697" x1="195.645" y1="98.0469" x2="195.645" y2="124.583" gradientUnits="userSpaceOnUse">
<stop stop-color="#1B1F28"/>
<stop offset="0.729167" stop-color="#444B5C"/>
</linearGradient>
</defs>
</svg>
